<svg width="210" height="28" viewBox="0 0 210 28" fill="none" xmlns="http://www.w3.org/2000/svg">
<path d="M5.19847 13.6295C5.19847 19.9181 7.98991 23.0624 13.5728 23.0624C19.017 23.0624 21.7392 19.9181 21.7392 13.6295C21.7392 7.44167 19.017 4.34778 13.5728 4.34778C7.98991 4.34778 5.19847 7.44167 5.19847 13.6295ZM-3.12701e-05 13.7429C-3.12701e-05 4.58092 4.52424 -6.24061e-05 13.5728 -6.24061e-05C22.4827 -6.24061e-05 26.9377 4.58092 26.9377 13.7429C26.9377 22.8544 22.4827 27.4102 13.5728 27.4102C4.92752 27.4102 0.403247 22.8544 -3.12701e-05 13.7429ZM43.7808 12.552C42.7474 11.8714 41.4494 11.5312 39.8867 11.5312C36.7739 11.5312 35.2175 13.2766 35.2175 16.7675C35.2175 20.9137 36.8369 22.9868 40.0757 22.9868C41.3864 22.9868 42.6214 22.804 43.7808 22.4386V12.552ZM48.7903 26.0303C45.7531 26.8242 42.7852 27.2212 39.8867 27.2212C33.472 27.2212 30.2647 23.7807 30.2647 16.8998C30.2647 10.5482 33.4027 7.37236 39.6787 7.37236C41.0146 7.37236 42.3819 7.68742 43.7808 8.31754V0.188974H48.7903V26.0303ZM57.5805 17.2212C57.5805 21.3674 59.1873 23.4405 62.4009 23.4405C65.6145 23.4405 67.2213 21.3674 67.2213 17.2212C67.2213 13.1758 65.6145 11.1531 62.4009 11.1531C59.1873 11.1531 57.5805 13.1758 57.5805 17.2212ZM52.571 17.2968C52.571 10.6427 55.8477 7.31565 62.4009 7.31565C68.9542 7.31565 72.2308 10.6427 72.2308 17.2968C72.2308 23.9383 68.9542 27.259 62.4009 27.259C55.8729 27.259 52.5962 23.9383 52.571 17.2968ZM76.0115 27.2212V7.37236H79.8868L80.5106 10.2835C82.4136 8.34275 84.5812 7.37236 87.0135 7.37236C91.7142 7.37236 94.0645 9.81723 94.0645 14.707V27.2212H89.0551V14.707C89.0551 12.5142 87.9649 11.4177 85.7847 11.4177C84.159 11.4177 82.5711 12.0668 81.021 13.3648V27.2212H76.0115ZM98.5258 4.15874H102.231L102.987 7.37236H107.978V11.3421H103.535V20.4726C103.535 22.3251 104.336 23.2514 105.936 23.2514H107.978V27.2212H103.516C100.189 27.2212 98.5258 25.4379 98.5258 21.8715V4.15874ZM115.463 17.2212C115.463 21.3674 117.07 23.4405 120.284 23.4405C123.498 23.4405 125.104 21.3674 125.104 17.2212C125.104 13.1758 123.498 11.1531 120.284 11.1531C117.07 11.1531 115.463 13.1758 115.463 17.2212ZM110.454 17.2968C110.454 10.6427 113.731 7.31565 120.284 7.31565C126.837 7.31565 130.114 10.6427 130.114 17.2968C130.114 23.9383 126.837 27.259 120.284 27.259C113.756 27.259 110.479 23.9383 110.454 17.2968Z" fill="black"/>
<path d="M134.367 27.2212V0.188974H146.465C151.985 0.188974 154.745 2.72836 154.745 7.80714C154.745 13.3144 150.971 16.6478 143.422 17.8072L142.704 13.3459C147.24 12.5268 149.509 10.7309 149.509 7.95837C149.509 5.71514 148.387 4.59352 146.144 4.59352H139.377V27.2212H134.367ZM158.072 27.1834V0.188974H170.36C175.88 0.188974 178.639 2.60234 178.639 7.42907C178.639 10.6931 176.491 13.3963 172.193 15.5387L180.757 27.2212H174.443L166.22 15.4442V13.1569C171.009 12.3377 173.403 10.4789 173.403 7.5803C173.403 5.58912 172.282 4.59352 170.038 4.59352H163.176V27.1834H158.072ZM187.392 13.6295C187.392 19.9181 190.183 23.0624 195.766 23.0624C201.21 23.0624 203.933 19.9181 203.933 13.6295C203.933 7.44167 201.21 4.34778 195.766 4.34778C190.183 4.34778 187.392 7.44167 187.392 13.6295ZM182.193 13.7429C182.193 4.58092 186.718 -6.24061e-05 195.766 -6.24061e-05C204.676 -6.24061e-05 209.131 4.58092 209.131 13.7429C209.131 22.8544 204.676 27.4102 195.766 27.4102C187.121 27.4102 182.597 22.8544 182.193 13.7429Z" fill="#14B7A5"/>
</svg>
